<?xml version="1.0" encoding="utf-8"?>
<svg version="1.1" xmlns="http://www.w3.org/2000/svg" xmlns:xlink="http://www.w3.org/1999/xlink" x="0px" y="0px" viewBox="0 0 200 200" enable-background="new 0 0 200 200" xml:space="preserve">
<rect width="200" height="200" fill="#ffffff" />
<path fill="#000000" d="m63.627 40c-1.5864 0-3.2866 0.33965-5.0996 1.0195-1.6997 0.56657-3.2867 1.4742-4.7598 2.7207-1.3598 1.2465-2.5485 2.7748-3.5684 4.5879-0.9065 1.813-1.3613 3.9095-1.3613 6.2891v58.811c0 8.0453 1.2473 15.014 3.7402 20.906 2.4929 5.8924 5.9479 10.764 10.367 14.617 4.5326 3.7394 9.9728 6.5171 16.318 8.3301 6.3456 1.813 13.314 2.7187 20.906 2.7187 7.7054 0 14.674-0.90571 20.906-2.7187 6.3456-1.9263 11.729-4.7607 16.148-8.5 4.4193-3.8527 7.8177-8.6682 10.197-14.447 2.4929-5.8924 3.7402-12.861 3.7402-20.906v-69.18c0-1.2465-0.45481-2.2674-1.3613-3.0606-0.7932-0.7932-1.8121-1.1894-3.0586-1.1894h-12.748c-1.5864 0-3.23 0.28303-4.9297 0.8496s-3.2847 1.4742-4.7578 2.7207-2.7204 2.7749-3.7402 4.5879c-0.90649 1.813-1.3594 3.9095-1.3594 6.289v58.643c0 6.4589-1.5304 11.558-4.5898 15.297-2.9462 3.7394-7.8184 5.6094-14.617 5.6094-6.7988 0-11.728-1.87-14.787-5.6094-2.9462-3.7393-4.4199-8.838-4.4199-15.297v-68.84c0-1.2465-0.45286-2.2674-1.3594-3.0606-0.7932-0.7932-1.8141-1.1894-3.0606-1.1894z" />
</svg>