<?xml version="1.0" encoding="utf-8"?>
<svg version="1.1" xmlns:cc="http://creativecommons.org/ns#" xmlns:dc="http://purl.org/dc/elements/1.1/" xmlns:rdf="http://www.w3.org/1999/02/22-rdf-syntax-ns#" xmlns="http://www.w3.org/2000/svg" xmlns:xlink="http://www.w3.org/1999/xlink" x="0px" y="0px" viewBox="0 0 1024 768" xml:space="preserve">
<rect fill="#ffffff" width="1024" height="768" />

 
 <g id="logo-group" transform="translate(-10.303 -42.335) scale(1.1166)">
  <path id="path19540" style="font-variant-ligatures:none" d="m238.5 357.41v-29.894q0-1.8144 0.6912-3.1968 0.7776-1.3824 1.8144-2.3328 1.1232-0.9504 2.4192-1.3824 1.3824-0.5184 2.592-0.5184h6.48q0.9504 0 1.5552 0.6048 0.6912 0.6048 0.6912 1.5552v34.992q0 4.9248 2.2464 7.776 2.3328 2.8512 7.5168 2.8512t7.4304-2.8512q2.3328-2.8512 2.3328-7.776v-29.808q0-1.8144 0.6912-3.1968 0.7776-1.3824 1.9008-2.3328t2.4192-1.3824 2.5056-0.432h6.48q0.9504 0 1.5552 0.6048 0.6912 0.6048 0.6912 1.5552v35.165q0 6.1344-1.9008 10.627-1.8144 4.4064-5.184 7.344-3.3696 2.8512-8.208 4.32-4.752 1.3824-10.627 1.3824-5.7888 0-10.627-1.3824-4.8384-1.3824-8.2944-4.2336-3.3696-2.9376-5.2704-7.4304t-1.9008-10.627z" stroke-miterlimit="2" stroke-width="0" fill="#343439"/>
  <path id="path19542" style="font-variant-ligatures:none" d="m352.59 339.78q0 5.4432-1.9008 9.2448-1.9008 3.7152-5.184 6.048-3.1968 2.2464-7.5168 3.2832-4.32 0.9504-9.2448 0.9504h-7.2576q-1.0368 0-1.8144 0.6912t-0.7776 1.9008v15.984q0 0.864-0.6048 1.4688-0.5184 0.6912-1.5552 0.6912h-12.355q-0.86398 0-1.5552-0.6048-0.6048-0.6912-0.6048-1.5552v-50.544q0-1.8144 0.6912-3.1968 0.6912-1.4688 1.8144-2.4192t2.4192-1.3824q1.296-0.5184 2.592-0.5184h19.008q4.9248 0 9.2448 1.1232 4.4064 1.0368 7.6032 3.456 3.2832 2.3328 5.0976 6.1344 1.9008 3.8016 1.9008 9.2448zm-16.762-0.0864q0-7.5168-7.5168-7.5168h-14.602q0.6912 0 1.5552 0.3456 0.86402 0.2592 1.5552 0.864 0.7776 0.6048 1.296 1.5552 0.5184 0.864 0.5184 1.9872v7.4304q0 1.2096 0.7776 1.9872 0.864 0.6912 1.9008 0.6912h6.9984q3.5424 0 5.5296-1.9008t1.9872-5.4432z" stroke-miterlimit="2" stroke-width="0" fill="#343439"/>
  <path id="path19544" style="font-variant-ligatures:none" d="m421.89 320.34q0.51842 0.6048 0.51842 1.296v0.5184l-9.2448 55.037q-0.0864 1.1232-1.1232 1.9872-0.864 0.864-2.3328 0.864h-8.64q-1.1232 0-1.9872-0.5184-0.86402-0.6048-1.2096-1.728l-8.1216-22.637q-0.0864-0.2592-0.43202-0.2592-0.2592 0-0.432 0.2592l-8.0352 22.637q-0.95042 2.2464-3.2832 2.2464h-8.64q-1.4688 0-2.3328-0.864-0.86402-0.7776-1.0368-1.9872l-9.2448-55.037q-0.0864-0.6912 0-1.0368 0.1728-0.432 0.432-0.7776 0.69122-0.5184 1.296-0.5184h11.232q2.5056 0 2.7648 1.9872l4.9248 30.586q0.17282 0.432 0.51842 0.432 0.34558 0 0.43198-0.3456l5.3568-17.021q0.6912-2.3328 2.7648-2.3328h6.48q2.2464 0 2.8512 2.3328l5.3568 16.934q0.0864 0.3456 0.432 0.3456 0.43198 0 0.43198-0.3456l5.0112-30.586q0.2592-1.0368 0.7776-1.5552 0.69122-0.432 1.9008-0.432h11.318q0.77758 0 1.296 0.5184z" stroke-miterlimit="2" stroke-width="0" fill="#343439"/>
  <path id="path19546" style="font-variant-ligatures:none" d="m425.04 379.78q-0.51838-0.6912-0.51838-1.296t0.0864-0.7776l20.045-55.123q0.9504-2.5056 3.456-2.5056h13.392q2.5056 0 3.456 2.5056l20.045 55.123q0.0864 0.1728 0.0864 0.7776 0 0.6912-0.6048 1.296-0.51838 0.5184-1.2096 0.5184h-11.146q-2.16 0-2.9376-1.9008l-4.4928-12.182q-3.1104 1.2096-6.3072 1.9872t-6.2208 1.2096q-2.9376 0.3456-5.5296 0.5184-2.592 0.0864-4.4928 0.0864-1.2096 0-2.0736 0t-1.296-0.0864q1.6416 0.1728 2.592 1.728 1.0368 1.4688 0.2592 3.456l-1.2096 3.2832q-0.7776 1.9008-2.9376 1.9008h-11.146q-0.60482 0-1.296-0.5184zm21.946-22.118q2.4192-0.1728 5.0112-0.6048 2.2464-0.3456 4.6656-0.9504 2.5056-0.6912 4.752-1.9008l-6.6528-19.008z" stroke-miterlimit="2" stroke-width="0" fill="#343439"/>
  <path id="path19548" style="font-variant-ligatures:none" d="m542.86 379.61q-0.5184 0.5184-1.296 0.5184h-12.096q-2.5056 0-3.5424-2.3328l-8.7264-17.28q-0.7776-1.3824-2.3328-1.3824h-11.405q2.2464 0 3.456 1.5552 1.296 1.5552 1.296 3.024v14.256q0 1.0368-0.6048 1.6416-0.6048 0.5184-1.6416 0.5184h-11.75q-0.9504 0-1.5552-0.6048t-0.6048-1.5552v-50.544q0-3.1968 2.2464-5.3568t5.2704-2.16h18.317q4.8384 0 9.1584 1.1232 4.4064 1.0368 7.6896 3.3696t5.2704 6.1344q1.9872 3.7152 1.9872 9.072t-2.2464 9.4176q-2.16 4.0608-6.912 6.6528-0.6912 0.5184-0.6912 1.1232t0.1728 0.9504l10.8 19.613q0.2592 0.5184 0.2592 0.9504 0 0.6048-0.5184 1.296zm-17.539-40.09q0-3.5424-2.0736-5.3568-1.9872-1.9008-5.4432-1.9008h-14.861q2.0736 0 3.3696 1.5552 1.296 1.4688 1.296 3.1104v6.912q0 1.1232 0.7776 1.9008t1.9008 0.7776h7.5168q3.456 0 5.4432-1.728 2.0736-1.728 2.0736-5.2704z" stroke-miterlimit="2" stroke-width="0" fill="#343439"/>
  <path id="path19550" style="font-variant-ligatures:none" d="m551.71 378.14v-50.544q0-3.2832 2.2464-5.3568 2.3328-2.16 5.2704-2.16h17.28q5.7888 0 10.627 1.3824 4.9248 1.296 8.5536 4.2336 3.6288 2.8512 5.7024 7.344 2.0736 4.4064 2.2464 10.541 0.0864 1.2096 0.0864 2.9376 0 1.6416 0 3.7152 0 1.9872 0 3.6288t-0.0864 2.8512q-0.7776 23.587-26.698 23.587h-23.069q-0.9504 0-1.5552-0.6048t-0.6048-1.5552zm24.797-10.714q5.616 0 8.1216-2.6784 2.5056-2.7648 2.592-8.208 0.0864-1.2096 0.0864-2.7648 0.0864-1.6416 0.0864-3.6288t-0.0864-3.5424q0-1.6416-0.0864-2.8512-0.2592-10.8-11.146-10.8h-12.96q1.9872 0 3.3696 1.4688 1.3824 1.3824 1.3824 3.024v27.302q0 1.1232 0.6912 1.9008 0.7776 0.7776 1.9872 0.7776z" stroke-miterlimit="2" stroke-width="0" fill="#343439"/>
  <path id="path19552" style="font-variant-ligatures:none" d="m292.76 386.92q0.6912 0 1.2096 0.5184 0.6048 0.5184 0.6048 1.2096 0 0.6048-0.0864 0.7776l-17.453 55.123q-0.2592 0.9504-1.1232 1.8144-0.7776 0.6912-2.4192 0.6912h-13.824q-1.6416 0-2.4192-0.6912-0.864-0.7776-1.2096-1.8144l-17.366-55.123-0.1728-0.7776q0-0.6912 0.5184-1.2096 0.6048-0.5184 1.3824-0.5184h11.232q1.3824 0 2.16 0.6912 0.7776 0.7776 1.0368 1.5552l11.318 37.498q0 0.3456 0.432 0.3456 0.3456 0 0.3456-0.3456l11.405-37.498q0.3456-1.1232 1.2096-1.6416 0.864-0.6048 1.9872-0.6048z" stroke-miterlimit="2" stroke-width="0" fill="#807d7e"/>
  <path id="path19554" style="font-variant-ligatures:none" d="m297.82 445.07v-50.544q0-3.2832 2.2464-5.3568 2.2464-2.16 5.2704-2.16h35.251q0.864 0 1.5552 0.6912 0.69122 0.6912 0.69122 1.5552v8.5536q0 0.9504-0.69122 1.4688-0.6048 0.6048-1.5552 0.6048h-31.968q2.0736 0 3.3696 1.4688 1.3824 1.4688 1.3824 3.1968v3.6288q0 0.9504 0.69122 1.8144 0.6912 0.864 1.9872 0.864h18.749q2.2464 0 2.2464 2.2464v7.776q0 2.2464-2.2464 2.2464h-26.179q1.9872 0 3.3696 1.3824t1.3824 3.1104v4.0608q0 0.9504 0.69122 1.8144 0.7776 0.864 1.9872 0.864h25.229q0.9504 0 1.5552 0.6912 0.6912 0.6048 0.6912 1.5552v8.4672q0 0.9504-0.6912 1.5552-0.69122 0.6048-1.5552 0.6048h-41.299q-0.95042 0-1.5552-0.6048-0.6048-0.6048-0.6048-1.5552z" stroke-miterlimit="2" stroke-width="0" fill="#807d7e"/>
  <path id="path19556" style="font-variant-ligatures:none" d="m353.34 444.98v-50.544q0-3.024 2.16-5.2704t5.3568-2.2464h2.7648q1.0368 0 2.3328 0.432 1.296 0.3456 2.6784 2.2464 5.0976 7.9488 9.1584 14.342 2.5056 3.888 3.888 6.2208 1.4688 2.2464 2.6784 4.2336 1.296 1.9008 2.16 3.2832t1.0368 1.6416q0.1728 0.1728 0.432 0.1728 0.432 0 0.432-0.432v-24.624q0-1.728 0.6048-3.1104 0.6912-1.3824 1.728-2.3328t2.4192-1.4688q1.3824-0.6048 2.7648-0.6048h5.616q0.9504 0 1.4688 0.6048 0.6048 0.6048 0.6048 1.6416v55.728q0 0.9504-0.6048 1.5552-0.5184 0.6912-1.4688 0.6912h-9.7632q-2.0736 0-2.9376-1.6416-5.184-7.9488-9.3312-14.256-2.592-3.8016-4.0608-6.048-1.4688-2.3328-2.7648-4.2336-1.2096-1.9872-2.0736-3.2832-0.864-1.3824-1.0368-1.6416-0.2592-0.2592-0.432-0.2592-0.5184 0-0.5184 0.432v28.771q0 1.0368-0.6048 1.6416-0.6048 0.5184-1.6416 0.5184h-10.886q-0.864 0-1.5552-0.6048-0.6048-0.6912-0.6048-1.5552z" stroke-miterlimit="2" stroke-width="0" fill="#807d7e"/>
  <path id="path19558" style="font-variant-ligatures:none" d="m460.03 386.92q2.2464 0 2.2464 2.2464v9.5904q0 1.0368-0.6048 1.5552-0.6048 0.6048-1.6416 0.6048h-19.958q1.9008 0 3.3696 1.3824t1.4688 3.1104v39.571q0 1.0368-0.6048 1.6416-0.6048 0.5184-1.6416 0.5184h-11.923q-0.864 0-1.5552-0.6048t-0.6912-1.5552v-41.386q0-1.2096-0.864-1.9008-0.7776-0.7776-1.728-0.7776h-12.528q-1.0368 0-1.6416-0.6048-0.6048-0.5184-0.6048-1.5552v-4.4064q0-3.3696 2.3328-5.3568 2.3328-2.0736 5.184-2.0736z" stroke-miterlimit="2" stroke-width="0" fill="#807d7e"/>
  <path id="path19560" style="font-variant-ligatures:none" d="m469.6 424.42v-29.894q0-1.728 0.6912-3.1104t1.728-2.3328q1.1232-0.9504 2.4192-1.4688 1.3824-0.5184 2.6784-0.5184h6.3936q0.95038 0 1.5552 0.6912 0.6912 0.6048 0.6912 1.5552v34.906q0 4.9248 2.3328 7.8624 2.4192 2.8512 7.5168 2.8512t7.4304-2.9376 2.3328-7.776v-29.722q0-1.8144 0.69118-3.1968 0.7776-1.3824 1.8144-2.3328 1.1232-0.9504 2.4192-1.3824 1.3824-0.5184 2.592-0.5184h6.3936q0.95038 0 1.5552 0.6912 0.6912 0.6048 0.6912 1.5552v35.078q0 6.1344-1.8144 10.627-1.8144 4.4928-5.2704 7.4304-3.3696 2.8512-8.1216 4.32-4.752 1.3824-10.627 1.3824-5.8752 0-10.714-1.3824-4.752-1.3824-8.208-4.32t-5.3568-7.4304q-1.8144-4.4928-1.8144-10.627z" stroke-miterlimit="2" stroke-width="0" fill="#807d7e"/>
  <path id="path19562" style="font-variant-ligatures:none" d="m583.69 446.71q-0.5184 0.5184-1.296 0.5184h-12.096q-2.5056 0-3.5424-2.3328l-8.7264-17.28q-0.7776-1.3824-2.3328-1.3824h-11.405q2.2464 0 3.456 1.5552 1.296 1.5552 1.296 3.024v14.256q0 1.0368-0.6048 1.6416-0.6048 0.5184-1.6416 0.5184h-11.75q-0.9504 0-1.5552-0.6048t-0.6048-1.5552v-50.544q0-3.1968 2.2464-5.3568t5.2704-2.16h18.317q4.8384 0 9.1584 1.1232 4.4064 1.0368 7.6896 3.3696t5.2704 6.1344q1.9872 3.7152 1.9872 9.072t-2.2464 9.4176q-2.16 4.0608-6.912 6.6528-0.6912 0.5184-0.6912 1.1232t0.1728 0.9504l10.8 19.613q0.2592 0.5184 0.2592 0.9504 0 0.6048-0.5184 1.296zm-17.539-40.09q0-3.5424-2.0736-5.3568-1.9872-1.9008-5.4432-1.9008h-14.861q2.0736 0 3.3696 1.5552 1.296 1.4688 1.296 3.1104v6.912q0 1.1232 0.7776 1.9008t1.9008 0.7776h7.5168q3.456 0 5.4432-1.728 2.0736-1.728 2.0736-5.2704z" stroke-miterlimit="2" stroke-width="0" fill="#807d7e"/>
  <path id="path19564" style="font-variant-ligatures:none" d="m592.63 445.07v-50.544q0-3.2832 2.2464-5.3568 2.2464-2.16 5.2704-2.16h35.251q0.864 0 1.5552 0.6912t0.6912 1.5552v8.5536q0 0.9504-0.6912 1.4688-0.6048 0.6048-1.5552 0.6048h-31.968q2.0736 0 3.3696 1.4688 1.3824 1.4688 1.3824 3.1968v3.6288q0 0.9504 0.6912 1.8144t1.9872 0.864h18.749q2.2464 0 2.2464 2.2464v7.776q0 2.2464-2.2464 2.2464h-26.179q1.9872 0 3.3696 1.3824t1.3824 3.1104v4.0608q0 0.9504 0.6912 1.8144 0.7776 0.864 1.9872 0.864h25.229q0.9504 0 1.5552 0.6912 0.6912 0.6048 0.6912 1.5552v8.4672q0 0.9504-0.6912 1.5552t-1.5552 0.6048h-41.299q-0.9504 0-1.5552-0.6048t-0.6048-1.5552z" stroke-miterlimit="2" stroke-width="0" fill="#807d7e"/>
  <path id="path19566" style="font-variant-ligatures:none" d="m697.05 429.08q0 5.2704-2.4192 8.9856-2.4192 3.6288-6.2208 5.8752-3.8016 2.16-8.4672 3.1968-4.6656 0.9504-9.072 0.9504-3.024 0-6.3072-0.432-3.2832-0.3456-6.3936-1.3824-3.024-1.0368-5.7888-2.6784-2.6784-1.728-4.5792-4.32-3.1104-3.9744-3.1968-8.5536 0-0.7776 0.5184-1.296 0.6912-0.5184 1.3824-0.5184h11.405q1.1232 0 1.728 0.3456 0.6912 0.3456 1.3824 1.2096 1.5552 2.7648 4.1472 3.8016 2.6784 0.9504 5.7024 0.9504 1.296 0 2.9376-0.1728 1.6416-0.2592 3.1104-0.7776 1.4688-0.6048 2.5056-1.6416t1.0368-2.7648q0-2.2464-1.8144-3.2832-1.8144-1.1232-3.6288-1.728-1.3824-0.432-3.456-0.9504-1.9872-0.5184-4.6656-1.1232-3.9744-0.7776-7.6896-1.9872t-6.6528-3.2832q-2.8512-2.0736-4.6656-5.184-1.728-3.1968-1.728-7.8624 0-4.9248 2.16-8.3808 2.2464-3.5424 5.7024-5.7024 3.456-2.2464 7.6896-3.1968 4.32-1.0368 8.5536-1.0368 2.9376 0 5.9616 0.5184 3.1104 0.5184 5.9616 1.6416t5.2704 2.8512q2.5056 1.728 4.4064 4.1472 2.9376 3.888 3.1104 7.6896 0 0.6912-0.5184 1.3824-0.51838 0.5184-1.296 0.5184h-12.01q-1.9008 0-2.9376-1.5552-0.3456-1.2096-1.2096-1.9872-0.86398-0.864-2.0736-1.296-1.1232-0.5184-2.3328-0.6912-1.2096-0.2592-2.3328-0.2592-1.296 0-2.6784 0.1728-1.296 0.1728-2.4192 0.7776-1.0368 0.5184-1.8144 1.5552-0.6912 0.9504-0.6912 2.5056 0 2.5056 2.592 3.9744 2.592 1.3824 9.5904 2.8512 4.1472 0.6912 8.1216 1.8144 4.0608 1.1232 7.1712 3.1104t5.0112 5.184q1.9008 3.1104 1.9008 8.0352z" stroke-miterlimit="2" stroke-width="0" fill="#807d7e"/>
  <path id="icon" stroke-width=".35250" fill="#807d7e" d="m654.68 315.47c-0.37178 0.002-0.85685 0.01-1.0776 0.018-0.22088 0.008-0.56034 0.0249-0.75456 0.0369-0.19423 0.0119-0.51194 0.0349-0.70596 0.0511-0.19403 0.0163-0.52466 0.0472-0.73496 0.0688-0.2101 0.0218-0.61148 0.07-0.89175 0.1076-0.28027 0.0374-0.72125 0.10348-0.97995 0.1466-0.25871 0.0433-0.70909 0.12622-1.0007 0.18462-0.29183 0.0582-0.68872 0.14229-0.88196 0.18659-0.19344 0.0441-0.54112 0.12915-0.773 0.18854-0.23166 0.0596-0.59325 0.15699-0.80356 0.21657-0.2101 0.0596-0.60464 0.17815-0.87666 0.26341-0.27184 0.0854-0.70849 0.23107-0.97015 0.32358-0.26165 0.0927-0.66972 0.24361-0.90685 0.33573-0.23714 0.0919-0.62519 0.24891-0.86235 0.34866-0.23715 0.0998-0.60327 0.2593-0.81336 0.35434-0.2101 0.0953-0.66873 0.31613-1.0192 0.49096-0.35023 0.17502-0.81336 0.41433-1.029 0.53192-0.21558 0.11779-0.577 0.32221-0.80334 0.45451-0.22617 0.1323-0.57444 0.3422-0.77416 0.46647-0.19952 0.12445-0.57035 0.36434-0.82415 0.53347-0.25381 0.16894-0.60207 0.40746-0.77416 0.52977-0.17208 0.1223-0.4892 0.35476-0.70479 0.51645-0.21559 0.16189-0.58599 0.45018-0.82316 0.64049-0.23714 0.1905-0.59188 0.4843-0.78826 0.65304-0.19638 0.16875-0.50918 0.44549-0.69516 0.61501-0.18599 0.16953-0.50605 0.47136-0.71106 0.67067-0.20521 0.19932-0.537 0.53114-0.7375 0.7375-0.2005 0.20618-0.50271 0.52663-0.67148 0.71184-0.16875 0.1854-0.44489 0.49741-0.61346 0.6934-0.16855 0.19599-0.47587 0.56798-0.68283 0.82668-0.20696 0.25871-0.49526 0.62914-0.6407 0.82316-0.14542 0.19403-0.38592 0.52466-0.53446 0.73496-0.14836 0.2101-0.38669 0.55857-0.52917 0.77416-0.14268 0.21559-0.36103 0.55505-0.48529 0.75457-0.12426 0.19932-0.33416 0.54778-0.46646 0.77416-0.1321 0.22636-0.33652 0.58797-0.45413 0.80355-0.11759 0.21559-0.33181 0.6264-0.47626 0.91312-0.14425 0.28654-0.34769 0.70556-0.45215 0.93095-0.10427 0.22539-0.2691 0.59502-0.36611 0.8214-0.0972 0.22637-0.25832 0.61874-0.35828 0.87215-0.1 0.25342-0.24107 0.62365-0.31319 0.82316-0.0723 0.19952-0.19599 0.5566-0.27498 0.79376-0.079 0.23715-0.20187 0.6252-0.27321 0.86236-0.0715 0.23715-0.18227 0.62519-0.24636 0.86235-0.0639 0.23715-0.16502 0.63405-0.2246 0.88196-0.0598 0.24793-0.1562 0.68459-0.21441 0.97015-0.0584 0.28556-0.1372 0.69576-0.17522 0.91135-0.038 0.21559-0.0913 0.5376-0.11857 0.71537-0.0272 0.17776-0.0711 0.49096-0.0978 0.69576-0.0265 0.20481-0.0662 0.54426-0.0882 0.75456-0.022 0.2101-0.0531 0.54095-0.069 0.73496-0.0161 0.19403-0.0386 0.50704-0.0498 0.69577-0.0114 0.18854-0.0292 0.56347-0.0396 0.83296-0.0106 0.26948-0.019 0.76337-0.019 1.0975 0 0.33416 0.009 0.83236 0.019 1.1073 0.0102 0.27478 0.028 0.65403 0.0394 0.84276 0.0114 0.18854 0.0339 0.50175 0.05 0.69576 0.0159 0.19404 0.047 0.52467 0.069 0.73497 0.022 0.2101 0.0617 0.54976 0.0882 0.75456 0.0266 0.20481 0.0705 0.51782 0.0978 0.69576 0.0272 0.17777 0.0806 0.49978 0.11858 0.71537 0.038 0.21559 0.10857 0.58599 0.15679 0.82315 0.0482 0.23715 0.12719 0.60306 0.17541 0.81336 0.0484 0.2101 0.13229 0.55406 0.18658 0.76436 0.0541 0.2101 0.14739 0.55406 0.20697 0.76437 0.0596 0.2101 0.17835 0.60464 0.2636 0.87666 0.0855 0.27184 0.23108 0.70849 0.32359 0.97015 0.0927 0.26165 0.24361 0.66968 0.33573 0.90684 0.0919 0.23715 0.2489 0.6252 0.34866 0.86236 0.0998 0.23715 0.25949 0.60327 0.35476 0.81336 0.0953 0.2101 0.31593 0.66873 0.49036 1.0192 0.17443 0.35023 0.41137 0.80906 0.52664 1.0192 0.11504 0.2101 0.31926 0.57073 0.4537 0.8014 0.13445 0.23049 0.34651 0.58329 0.47154 0.78396 0.12484 0.2005 0.34553 0.5437 0.49036 0.76221 0.14484 0.21873 0.38317 0.567 0.52956 0.77417 0.14641 0.20716 0.39864 0.55307 0.56072 0.76866 0.16189 0.21559 0.43961 0.57267 0.61677 0.79376 0.17737 0.22088 0.41588 0.51193 0.53016 0.64676 0.11407 0.13465 0.3128 0.36396 0.44158 0.50958 0.12876 0.14542 0.33592 0.37474 0.46019 0.50957 0.12425 0.13465 0.37612 0.39826 0.55973 0.58561 0.18364 0.18736 0.50623 0.50919 0.71692 0.71536 0.21069 0.20618 0.55466 0.52978 0.76436 0.71949 0.20971 0.18953 0.518 0.46195 0.68498 0.60521 0.16718 0.14327 0.4978 0.4163 0.73496 0.60679 0.23715 0.19031 0.60757 0.47863 0.82316 0.64049 0.21559 0.1617 0.53308 0.39452 0.70556 0.51702 0.17247 0.12269 0.54761 0.37844 0.83373 0.56837 0.28615 0.18991 0.70166 0.45645 0.92331 0.59248 0.22166 0.13602 0.57838 0.34808 0.79298 0.47136 0.21441 0.12308 0.57073 0.32103 0.79179 0.43999 0.22127 0.11897 0.596 0.3132 0.83295 0.43178 0.23715 0.11838 0.61483 0.30084 0.83962 0.4053 0.22461 0.10427 0.59227 0.26851 0.81671 0.36456 0.22441 0.0962 0.54327 0.22892 0.70849 0.29496 0.16522 0.066 0.42843 0.16856 0.58462 0.22774 0.15621 0.059 0.49153 0.18051 0.74476 0.26969 0.25342 0.0892 0.60169 0.20677 0.77416 0.26145 0.17248 0.0547 0.47683 0.14758 0.67617 0.20657 0.19952 0.0588 0.44196 0.12935 0.53897 0.1566 0.097 0.0272 0.34847 0.0939 0.55857 0.14816 0.2103 0.0541 0.55858 0.13896 0.77416 0.18855 0.21559 0.0496 0.60366 0.13307 0.86236 0.1854 0.25871 0.0525 0.70849 0.13543 0.99955 0.18443 0.29104 0.049 0.69242 0.11132 0.89175 0.13857 0.19952 0.0274 0.5125 0.067 0.69577 0.0884 0.18325 0.0211 0.46999 0.0519 0.63697 0.068 0.16718 0.0163 0.48017 0.0425 0.69576 0.0588 0.21559 0.0161 0.59051 0.0404 0.83296 0.0539 0.25655 0.0145 0.90391 0.0247 1.5483 0.0247 0.64793 0 1.2902-0.0102 1.5483-0.0247 0.24264-0.0137 0.61737-0.0378 0.83296-0.0535 0.21559-0.0159 0.53308-0.0423 0.70556-0.059 0.17247-0.0167 0.49449-0.0519 0.71536-0.0784 0.22108-0.0263 0.49879-0.0617 0.61737-0.0784s0.38317-0.0568 0.58797-0.089c0.20481-0.0322 0.518-0.0849 0.69577-0.11701 0.17776-0.0321 0.47781-0.0898 0.66636-0.12817 0.18874-0.0384 0.51508-0.10936 0.72517-0.15758 0.21029-0.048 0.50566-0.11857 0.65656-0.1564 0.15092-0.0378 0.43316-0.11191 0.62717-0.16463 0.19403-0.0525 0.5468-0.15385 0.78396-0.22519 0.23715-0.0711 0.65442-0.20403 0.92722-0.29536 0.27281-0.0913 0.68734-0.23715 0.92115-0.32417 0.23381-0.0872 0.57503-0.21833 0.7583-0.29163 0.18325-0.0733 0.48761-0.19893 0.67616-0.27929 0.18874-0.0804 0.50605-0.2197 0.70557-0.30986 0.19952-0.09 0.6493-0.30672 0.99955-0.48133 0.35043-0.17483 0.80905-0.41197 1.0191-0.52703 0.2103-0.11524 0.5719-0.31985 0.80356-0.45469 0.23186-0.13504 0.58466-0.34729 0.78396-0.47154 0.19952-0.12445 0.54151-0.34474 0.76006-0.48958 0.21873-0.14464 0.567-0.38296 0.77417-0.52939 0.20716-0.1464 0.55307-0.39885 0.76866-0.56072 0.21559-0.16208 0.58599-0.45039 0.82315-0.64088 0.23715-0.1905 0.59072-0.4831 0.78573-0.65068 0.19501-0.16737 0.50802-0.44352 0.69576-0.61346 0.18776-0.17012 0.66834-0.63619 1.0682-1.0358 0.39963-0.39963 0.8645-0.87864 1.0329-1.0646 0.16816-0.18599 0.4592-0.51683 0.64638-0.73496 0.18736-0.21833 0.4684-0.55565 0.6248-0.74966 0.1566-0.19403 0.42117-0.53369 0.58836-0.75456 0.16718-0.22108 0.41412-0.55621 0.54877-0.74477 0.13484-0.18873 0.37827-0.5427 0.54113-0.78688 0.16286-0.24421 0.40551-0.61892 0.53918-0.83296 0.13347-0.21402 0.31809-0.51701 0.41003-0.67324 0.0919-0.1564 0.22597-0.38866 0.2981-0.51645 0.0723-0.12759 0.2246-0.40551 0.33886-0.61736 0.11407-0.21187 0.31888-0.60994 0.45508-0.88489 0.13641-0.27497 0.31261-0.64088 0.39177-0.81335 0.0792-0.17248 0.21716-0.48194 0.30633-0.68773 0.0894-0.20579 0.24185-0.57327 0.33926-0.81671 0.0972-0.24322 0.24715-0.63482 0.33299-0.87018 0.086-0.23538 0.21383-0.60013 0.28419-0.81022 0.0704-0.2101 0.16816-0.51289 0.21754-0.67243 0.0494-0.15973 0.1419-0.47291 0.20579-0.69576 0.0637-0.22304 0.16032-0.57758 0.21442-0.7877 0.0543-0.2103 0.13895-0.55857 0.18854-0.77416 0.0496-0.21559 0.13308-0.60366 0.1854-0.86236 0.0525-0.2587 0.13544-0.70849 0.18443-0.99955 0.049-0.29104 0.11133-0.69245 0.13857-0.89175 0.0274-0.19952 0.067-0.5125 0.0884-0.69577 0.0211-0.18325 0.0519-0.46998 0.068-0.63696 0.0163-0.16718 0.0425-0.48018 0.0588-0.69577 0.0161-0.21559 0.0404-0.59051 0.0539-0.83296 0.0145-0.25654 0.0247-0.90391 0.0247-1.5483 0-0.64088-0.0104-1.2931-0.0245-1.5483-0.0135-0.24263-0.0423-0.67028-0.0639-0.95055-0.0214-0.28026-0.0614-0.71244-0.0884-0.96035-0.0272-0.24793-0.0756-0.64479-0.10779-0.88195-0.0322-0.23715-0.0986-0.6693-0.14758-0.96036-0.049-0.29104-0.13288-0.74536-0.18639-1.0093-0.0535-0.2642-0.13288-0.63461-0.17619-0.82316-0.0433-0.18874-0.10956-0.46647-0.14739-0.61737-0.0378-0.15091-0.10838-0.42-0.15698-0.59777-0.0486-0.17776-0.14993-0.53055-0.22539-0.78396-0.0755-0.25342-0.20187-0.65459-0.28105-0.89175-0.0792-0.23715-0.20285-0.59425-0.27498-0.79376-0.0721-0.19952-0.21304-0.56975-0.31299-0.82316-0.1-0.25342-0.26165-0.64716-0.35945-0.87508-0.0978-0.22813-0.26301-0.59855-0.3673-0.82316-0.10427-0.2248-0.30731-0.64247-0.45117-0.92803-0.14385-0.28555-0.35532-0.69146-0.46998-0.90155-0.11466-0.2103-0.31849-0.57073-0.45293-0.80141-0.13445-0.23049-0.34671-0.58328-0.47175-0.78396-0.12505-0.2005-0.36865-0.57641-0.54113-0.83511-0.17247-0.25871-0.4108-0.60718-0.52956-0.77416-0.11877-0.16718-0.34827-0.48017-0.50996-0.69576-0.16189-0.21559-0.43942-0.57289-0.61659-0.79376-0.17737-0.22108-0.41588-0.51211-0.53016-0.64677-0.11407-0.13484-0.3128-0.36413-0.44158-0.50957-0.12876-0.14563-0.33592-0.37492-0.46036-0.50958-0.12426-0.13484-0.38063-0.40294-0.56954-0.59622-0.18874-0.19305-0.50665-0.51056-0.70595-0.70556-0.19952-0.19481-0.51546-0.49332-0.70204-0.66323-0.18658-0.16992-0.49977-0.44686-0.69576-0.61539-0.19599-0.16875-0.57229-0.47958-0.83648-0.69087-0.264-0.21128-0.63443-0.49939-0.82316-0.64031-0.18854-0.14073-0.47077-0.3473-0.62717-0.45903-0.1562-0.11152-0.48391-0.33691-0.72809-0.50094-0.2442-0.16385-0.62794-0.41235-0.85256-0.55212-0.2248-0.13974-0.53643-0.32985-0.69283-0.42236-0.15621-0.0925-0.50017-0.28811-0.76437-0.43453-0.26399-0.1466-0.74906-0.40199-1.0779-0.56777-0.32868-0.16561-0.76182-0.37651-0.9625-0.46862-0.20069-0.0919-0.53133-0.2393-0.73496-0.3273-0.20364-0.088-0.54663-0.23068-0.76222-0.31711-0.21558-0.0862-0.58169-0.22755-0.81335-0.31359-0.23166-0.0862-0.66834-0.23891-0.97015-0.33926-0.30183-0.10034-0.76045-0.24479-1.0192-0.32064-0.25871-0.076-0.67324-0.19148-0.92116-0.25674-0.24792-0.0651-0.65794-0.1662-0.91135-0.2248-0.25341-0.0584-0.65893-0.14602-0.90155-0.19462-0.24244-0.0486-0.62167-0.11936-0.84276-0.15738-0.22088-0.0378-0.55346-0.0913-0.73909-0.11858-0.1854-0.0274-0.55152-0.0758-0.81335-0.10779-0.26185-0.0319-0.6656-0.0759-0.89743-0.0976-0.23166-0.0217-0.63306-0.0529-0.89176-0.0694-0.26085-0.01-0.70852-0.032-0.99405-0.0428-0.28552-0.0106-0.82132-0.0181-1.1943-0.0165zm1.6463 19.703 8.0063 0.003 0.16659 0.0343c0.0917 0.0188 0.27067 0.069 0.39787 0.11152 0.1274 0.0423 0.32025 0.12288 0.42882 0.17855 0.10858 0.0559 0.26909 0.15444 0.35669 0.21931 0.0874 0.0647 0.21539 0.17149 0.28399 0.23695 0.0688 0.0655 0.17933 0.18972 0.24577 0.27595 0.0664 0.0862 0.14406 0.19285 0.17228 0.23695 0.0282 0.0441 0.088 0.15327 0.13307 0.24283 0.0449 0.0894 0.11603 0.26498 0.15778 0.39022 0.0417 0.12504 0.0919 0.31123 0.11113 0.41373l0.0351 0.18619v16.111l-0.0355 0.18619c-0.0194 0.10231-0.0659 0.27772-0.10309 0.38962-0.0374 0.11191-0.10818 0.2834-0.15757 0.38102-0.0494 0.0978-0.12563 0.23107-0.16934 0.29633-0.0439 0.0653-0.14033 0.19149-0.21461 0.28027-0.0741 0.0888-0.19442 0.21265-0.26752 0.27556-0.0729 0.0627-0.19188 0.1564-0.26439 0.20814-0.0723 0.0518-0.2252 0.14151-0.33946 0.19952-0.11426 0.058-0.2881 0.13131-0.38648 0.16247-0.0984 0.0314-0.25361 0.0733-0.34533 0.0931-0.12955 0.028-0.2495 0.0359-0.53898 0.0357-0.30829-0.00035-0.4047-0.008-0.55994-0.0425-0.10329-0.0231-0.2444-0.0611-0.31359-0.0843-0.0694-0.0231-0.20971-0.0815-0.31201-0.12974-0.10231-0.0482-0.23029-0.11544-0.28419-0.14934-0.0541-0.0337-0.16875-0.11584-0.25518-0.18247-0.0862-0.0664-0.23185-0.19971-0.32338-0.29595-0.0915-0.0962-0.21618-0.24969-0.27693-0.34082-0.061-0.0911-0.15033-0.24499-0.19874-0.342-0.0484-0.097-0.11583-0.25989-0.15013-0.36199-0.0341-0.10211-0.0792-0.28595-0.10015-0.40865l-0.0382-0.22304v-8.9627l-6.9291 6.9287-6.9333 6.9302-0.18401 0.12337c-0.10132 0.0668-0.26439 0.15973-0.36258 0.20657-0.0982 0.0468-0.26282 0.11192-0.3661 0.14465-0.1031 0.0329-0.27067 0.0749-0.37239 0.0935-0.12249 0.0224-0.28712 0.0339-0.4886 0.0341-0.20598 0.0002-0.3606-0.0106-0.48017-0.0333-0.097-0.0184-0.27341-0.0637-0.39198-0.10054-0.11858-0.037-0.2932-0.10682-0.38824-0.15542-0.0951-0.0486-0.23166-0.12759-0.30379-0.17561-0.0721-0.0478-0.19932-0.14543-0.28262-0.21657-0.0835-0.0711-0.2099-0.19756-0.28124-0.28105-0.0713-0.0833-0.17345-0.21775-0.22696-0.29849-0.0535-0.0809-0.13209-0.21833-0.17482-0.30575-0.0425-0.0872-0.10368-0.23695-0.13621-0.33259-0.0323-0.0958-0.0778-0.27125-0.10114-0.39022-0.0323-0.16463-0.0425-0.2883-0.0427-0.51976 0-0.20089 0.011-0.36512 0.0329-0.48448 0.018-0.0996 0.0604-0.26713 0.0939-0.37238 0.0335-0.10544 0.0992-0.27203 0.14601-0.37023 0.0468-0.0982 0.13975-0.26125 0.20658-0.36258l0.12161-0.1833 6.9302-6.9337 6.9284-6.9337-4.555-0.006-4.5561-0.006-0.1766-0.042c-0.097-0.0231-0.23382-0.0613-0.30379-0.085-0.07-0.0237-0.21088-0.0821-0.31319-0.12995-0.10231-0.048-0.23029-0.11485-0.28419-0.14875-0.0543-0.0335-0.1692-0.11562-0.25556-0.18224-0.086-0.0666-0.23194-0.19987-0.32324-0.2961-0.0916-0.0962-0.21608-0.24957-0.27707-0.34087-0.061-0.091-0.15016-0.24499-0.19881-0.34193-0.0483-0.0969-0.11597-0.26014-0.15016-0.36237-0.0341-0.1025-0.0804-0.29202-0.1025-0.42138-0.0337-0.19697-0.0384-0.28653-0.0292-0.54898 0.006-0.17247 0.0253-0.37982 0.0427-0.46058 0.0176-0.0809 0.0627-0.23969 0.10015-0.35278 0.0376-0.11328 0.11191-0.28849 0.16503-0.38944 0.0533-0.10113 0.14758-0.25537 0.2097-0.34278 0.0621-0.0876 0.20129-0.24754 0.30928-0.35532 0.10799-0.108 0.27674-0.25107 0.37492-0.31829 0.0984-0.067 0.25694-0.1613 0.35257-0.20951 0.0954-0.0482 0.26635-0.11858 0.37943-0.15621 0.11328-0.0378 0.28967-0.0823 0.39198-0.0988 0.1025-0.0167 0.21716-0.0333 0.25479-0.0372 0.0378-0.004 3.6713-0.006 8.0747-0.004z"/>
 </g>

</svg>