<?xml version="1.0" encoding="utf-8"?>
<svg version="1.1" xmlns:cc="http://creativecommons.org/ns#" xmlns:dc="http://purl.org/dc/elements/1.1/" xmlns:rdf="http://www.w3.org/1999/02/22-rdf-syntax-ns#" xmlns="http://www.w3.org/2000/svg" xmlns:xlink="http://www.w3.org/1999/xlink" x="0px" y="0px" viewBox="0 0 1024 768" xml:space="preserve">
<path fill="#ffffff" d="m720.69 309.91c-0.41 0.01-0.95 0.02-1.2 0.02-0.25 0.01-0.62 0.03-0.84 0.04-0.22 0.02-0.57 0.04-0.79 0.06s-0.59 0.06-0.82 0.08c-0.24 0.02-0.68 0.08-1 0.12-0.31 0.04-0.8 0.11-1.09 0.16s-0.79 0.14-1.12 0.21c-0.32 0.06-0.77 0.16-0.98 0.21-0.22 0.05-0.61 0.14-0.87 0.21-0.25 0.06-0.66 0.17-0.89 0.24-0.24 0.07-0.68 0.2-0.98 0.29-0.31 0.1-0.79 0.26-1.08 0.36-0.3 0.11-0.75 0.28-1.02 0.38-0.26 0.1-0.7 0.28-0.96 0.39-0.27 0.11-0.67 0.29-0.91 0.39-0.23 0.11-0.74 0.36-1.14 0.55-0.39 0.2-0.91 0.47-1.15 0.6s-0.64 0.36-0.89 0.5c-0.26 0.15-0.64 0.39-0.87 0.53-0.22 0.14-0.63 0.4-0.92 0.59-0.28 0.19-0.67 0.46-0.86 0.59-0.19 0.14-0.55 0.4-0.79 0.58s-0.65 0.5-0.92 0.71c-0.26 0.22-0.66 0.54-0.88 0.73s-0.57 0.5-0.77 0.69c-0.21 0.19-0.57 0.53-0.8 0.75s-0.6 0.59-0.82 0.82c-0.23 0.23-0.56 0.59-0.75 0.8-0.19 0.2-0.5 0.55-0.69 0.77-0.18 0.22-0.53 0.64-0.76 0.93-0.23 0.28-0.55 0.7-0.71 0.91-0.17 0.22-0.44 0.59-0.6 0.82-0.17 0.24-0.43 0.63-0.59 0.87s-0.41 0.62-0.54 0.84c-0.14 0.22-0.38 0.61-0.52 0.87-0.15 0.25-0.38 0.65-0.51 0.89s-0.37 0.7-0.53 1.02-0.39 0.79-0.51 1.04-0.3 0.67-0.41 0.92-0.29 0.69-0.4 0.97c-0.11 0.29-0.27 0.7-0.35 0.92s-0.22 0.62-0.3 0.89c-0.09 0.26-0.23 0.7-0.31 0.96-0.08 0.27-0.2 0.7-0.27 0.96-0.08 0.27-0.19 0.71-0.25 0.99-0.07 0.27-0.18 0.76-0.24 1.08-0.07 0.32-0.16 0.78-0.2 1.02s-0.1 0.6-0.13 0.8-0.08 0.55-0.11 0.78c-0.03 0.22-0.07 0.6-0.1 0.84-0.02 0.23-0.06 0.6-0.08 0.82-0.02 0.21-0.04 0.56-0.05 0.78-0.01 0.21-0.04 0.62-0.05 0.92-0.01 0.31-0.02 0.86-0.02 1.23s0.01 0.93 0.02 1.24c0.01 0.3 0.04 0.73 0.05 0.94s0.03 0.56 0.05 0.77c0.02 0.22 0.06 0.59 0.08 0.82 0.03 0.24 0.07 0.62 0.1 0.85s0.08 0.58 0.11 0.77c0.03 0.2 0.09 0.56 0.13 0.8s0.12 0.66 0.18 0.92c0.05 0.27 0.14 0.68 0.19 0.91 0.06 0.24 0.15 0.62 0.21 0.85 0.06 0.24 0.16 0.62 0.23 0.86 0.07 0.23 0.2 0.67 0.29 0.98 0.1 0.3 0.26 0.79 0.37 1.08 0.1 0.29 0.27 0.75 0.37 1.01 0.1 0.27 0.28 0.7 0.39 0.97 0.11 0.26 0.29 0.67 0.4 0.9 0.1 0.24 0.35 0.75 0.54 1.14 0.2 0.39 0.46 0.9 0.59 1.14 0.13 0.23 0.36 0.64 0.51 0.9 0.15 0.25 0.39 0.65 0.53 0.87 0.13 0.22 0.38 0.61 0.54 0.85s0.43 0.63 0.59 0.87c0.17 0.23 0.45 0.61 0.63 0.85 0.18 0.25 0.49 0.64 0.69 0.89s0.46 0.57 0.59 0.72 0.35 0.41 0.49 0.57c0.15 0.16 0.38 0.42 0.52 0.57s0.42 0.44 0.62 0.65l0.8 0.8c0.24 0.23 0.62 0.59 0.86 0.81 0.23 0.21 0.57 0.51 0.76 0.67s0.56 0.47 0.82 0.68c0.27 0.21 0.68 0.53 0.92 0.71 0.24 0.19 0.6 0.44 0.79 0.58s0.61 0.42 0.93 0.64c0.32 0.21 0.78 0.51 1.03 0.66s0.65 0.39 0.89 0.52c0.24 0.14 0.63 0.36 0.88 0.5 0.25 0.13 0.67 0.35 0.93 0.48 0.27 0.13 0.69 0.33 0.94 0.45s0.66 0.3 0.91 0.41c0.25 0.1 0.61 0.25 0.79 0.33 0.19 0.07 0.48 0.19 0.65 0.25 0.18 0.07 0.55 0.2 0.84 0.3 0.28 0.1 0.67 0.23 0.86 0.29s0.53 0.17 0.75 0.23c0.23 0.07 0.5 0.15 0.61 0.18 0.1 0.03 0.38 0.1 0.62 0.17 0.23 0.06 0.62 0.15 0.86 0.21 0.25 0.05 0.68 0.14 0.97 0.2s0.79 0.15 1.11 0.21c0.33 0.05 0.78 0.12 1 0.15s0.57 0.08 0.78 0.1c0.2 0.03 0.52 0.06 0.71 0.08 0.18 0.02 0.53 0.04 0.77 0.06 0.25 0.02 0.66 0.05 0.93 0.06 0.29 0.02 1.01 0.03 1.73 0.03 0.73 0 1.44-0.01 1.73-0.03 0.27-0.01 0.69-0.04 0.93-0.06 0.24-0.01 0.6-0.04 0.79-0.06s0.55-0.06 0.8-0.09 0.56-0.07 0.69-0.09 0.43-0.06 0.65-0.1c0.23-0.03 0.58-0.09 0.78-0.13 0.2-0.03 0.54-0.1 0.75-0.14s0.57-0.12 0.8-0.18c0.24-0.05 0.57-0.13 0.74-0.17s0.48-0.13 0.7-0.19c0.21-0.05 0.61-0.17 0.87-0.25 0.27-0.07 0.73-0.22 1.04-0.33 0.3-0.1 0.77-0.26 1.03-0.36s0.64-0.24 0.84-0.32c0.21-0.09 0.55-0.23 0.76-0.32s0.56-0.24 0.79-0.34c0.22-0.1 0.72-0.34 1.11-0.54 0.39-0.19 0.91-0.46 1.14-0.59 0.24-0.13 0.64-0.35 0.9-0.5s0.65-0.39 0.87-0.53c0.23-0.14 0.61-0.39 0.85-0.55 0.25-0.16 0.64-0.43 0.87-0.59s0.61-0.44 0.85-0.63c0.24-0.18 0.66-0.5 0.92-0.71 0.27-0.21 0.66-0.54 0.88-0.73 0.22-0.18 0.57-0.49 0.78-0.68s0.75-0.71 1.19-1.16c0.45-0.44 0.97-0.98 1.15-1.19 0.19-0.21 0.52-0.57 0.73-0.82 0.21-0.24 0.52-0.62 0.69-0.84 0.18-0.21 0.47-0.59 0.66-0.84 0.19-0.24 0.46-0.62 0.61-0.83s0.43-0.61 0.61-0.88 0.45-0.69 0.6-0.93 0.35-0.58 0.46-0.75c0.1-0.18 0.25-0.43 0.33-0.58 0.08-0.14 0.25-0.45 0.38-0.69 0.13-0.23 0.35-0.68 0.51-0.98 0.15-0.31 0.35-0.72 0.43-0.91 0.09-0.2 0.25-0.54 0.35-0.77s0.27-0.64 0.37-0.91c0.11-0.27 0.28-0.71 0.38-0.97 0.09-0.27 0.24-0.67 0.31-0.91 0.08-0.23 0.19-0.57 0.25-0.75 0.05-0.18 0.16-0.53 0.23-0.78s0.18-0.64 0.24-0.88c0.06-0.23 0.15-0.62 0.21-0.86 0.05-0.24 0.14-0.67 0.2-0.96s0.16-0.79 0.21-1.12c0.05-0.32 0.12-0.77 0.15-0.99 0.03-0.23 0.08-0.58 0.1-0.78 0.03-0.21 0.06-0.53 0.08-0.71 0.02-0.19 0.05-0.54 0.06-0.78 0.02-0.24 0.05-0.66 0.06-0.93 0.02-0.29 0.03-1.01 0.03-1.73 0-0.71-0.01-1.44-0.03-1.73-0.01-0.27-0.04-0.74-0.07-1.06-0.02-0.31-0.06-0.79-0.1-1.07-0.03-0.28-0.08-0.72-0.12-0.99-0.03-0.26-0.11-0.74-0.16-1.07-0.05-0.32-0.15-0.83-0.21-1.13-0.06-0.29-0.15-0.7-0.19-0.91-0.05-0.21-0.13-0.52-0.17-0.69s-0.12-0.47-0.17-0.67c-0.06-0.2-0.17-0.59-0.26-0.88-0.08-0.28-0.22-0.73-0.31-0.99-0.09-0.27-0.23-0.67-0.31-0.89s-0.24-0.63-0.35-0.92c-0.11-0.28-0.29-0.72-0.4-0.97-0.11-0.26-0.29-0.67-0.41-0.92-0.11-0.25-0.34-0.72-0.5-1.04s-0.4-0.77-0.53-1.01c-0.12-0.23-0.35-0.63-0.5-0.89s-0.39-0.65-0.53-0.88c-0.14-0.22-0.41-0.64-0.6-0.93-0.2-0.29-0.46-0.68-0.6-0.86-0.13-0.19-0.38-0.54-0.56-0.78s-0.5-0.64-0.69-0.89c-0.2-0.24-0.47-0.57-0.59-0.72-0.13-0.15-0.35-0.41-0.5-0.57-0.14-0.16-0.37-0.42-0.51-0.57s-0.43-0.45-0.64-0.66c-0.21-0.22-0.56-0.57-0.79-0.79-0.22-0.22-0.57-0.55-0.78-0.74s-0.56-0.5-0.78-0.69-0.64-0.53-0.93-0.77c-0.3-0.23-0.71-0.56-0.92-0.71-0.21-0.16-0.53-0.39-0.7-0.52-0.17-0.12-0.54-0.37-0.81-0.56-0.28-0.18-0.7-0.46-0.96-0.61-0.25-0.16-0.59-0.37-0.77-0.47-0.17-0.11-0.56-0.33-0.85-0.49-0.3-0.16-0.84-0.45-1.21-0.63-0.36-0.19-0.85-0.42-1.07-0.53-0.22-0.1-0.59-0.26-0.82-0.36s-0.61-0.26-0.85-0.36c-0.24-0.09-0.65-0.25-0.91-0.35-0.26-0.09-0.75-0.26-1.08-0.38-0.34-0.11-0.85-0.27-1.14-0.35-0.29-0.09-0.75-0.22-1.03-0.29s-0.73-0.18-1.02-0.25c-0.28-0.06-0.73-0.16-1-0.22-0.27-0.05-0.7-0.13-0.94-0.17-0.25-0.05-0.62-0.1-0.83-0.14-0.21-0.03-0.62-0.08-0.91-0.12-0.29-0.03-0.74-0.08-1-0.11-0.26-0.02-0.71-0.06-1-0.07s-0.79-0.04-1.11-0.05-0.91-0.02-1.33-0.02v-0.01zm-385.15 4.86c-0.96 0-1.93 0.19-2.89 0.58-0.97 0.32-1.87 0.83-2.7 1.54-0.84 0.71-1.51 1.61-2.03 2.7-0.51 1.03-0.77 2.22-0.77 3.57v56.44c0 0.64 0.22 1.22 0.67 1.73 0.52 0.45 1.1 0.68 1.74 0.68h13.8c0.77 0 1.35-0.26 1.73-0.77 0.45-0.45 0.68-1 0.68-1.64v-17.85c0-0.9 0.29-1.61 0.87-2.12 0.58-0.52 1.25-0.77 2.02-0.77h8.11c3.66 0 7.1-0.36 10.32-1.07 3.21-0.77 6.01-1.99 8.39-3.66 2.45-1.74 4.37-3.99 5.79-6.75 1.41-2.83 2.12-6.28 2.12-10.33s-0.71-7.49-2.12-10.32c-1.35-2.83-3.25-5.11-5.69-6.85-2.38-1.8-5.21-3.09-8.49-3.86-3.22-0.83-6.66-1.25-10.32-1.25h-21.23zm53.94 0c-0.45 0-0.94 0.19-1.45 0.58-0.19 0.25-0.35 0.54-0.48 0.86-0.07 0.26-0.07 0.65 0 1.16l10.32 61.46c0.13 0.9 0.51 1.64 1.16 2.21 0.64 0.65 1.51 0.97 2.6 0.97h9.65c1.74 0 2.96-0.84 3.67-2.51l8.97-25.28c0.12-0.19 0.29-0.28 0.48-0.28 0.26 0 0.42 0.09 0.48 0.28l9.07 25.28c0.26 0.84 0.71 1.48 1.35 1.93 0.64 0.39 1.38 0.58 2.22 0.58h9.65c1.09 0 1.96-0.32 2.6-0.97 0.77-0.64 1.19-1.38 1.26-2.21l10.32-61.46v-0.58c0-0.51-0.2-0.99-0.58-1.44-0.39-0.39-0.87-0.58-1.45-0.58h-12.64c-0.9 0-1.6 0.16-2.12 0.48-0.39 0.39-0.67 0.96-0.87 1.74l-5.59 34.15c0 0.26-0.16 0.38-0.48 0.38-0.26 0-0.42-0.12-0.49-0.38l-5.98-18.91c-0.45-1.74-1.51-2.61-3.18-2.61h-7.24c-1.54 0-2.57 0.87-3.08 2.61l-5.99 19c-0.06 0.26-0.22 0.39-0.48 0.39s-0.45-0.16-0.58-0.48l-5.5-34.15c-0.19-1.48-1.22-2.22-3.08-2.22h-12.54zm158.03 0.1c-2.26 0-4.22 0.8-5.89 2.41-1.67 1.6-2.51 3.6-2.51 5.98v56.43c0 0.71 0.23 1.29 0.68 1.74s1.03 0.68 1.74 0.68h13.12c0.77 0 1.38-0.2 1.83-0.58 0.45-0.45 0.67-1.06 0.67-1.84v-15.91c0-1.1-0.48-2.22-1.44-3.38-0.9-1.16-2.19-1.74-3.86-1.74h12.73c1.16 0 2.03 0.52 2.61 1.55l9.74 19.29c0.77 1.74 2.09 2.61 3.96 2.61h13.5c0.58 0 1.06-0.2 1.45-0.58 0.39-0.52 0.58-1 0.58-1.45 0-0.32-0.1-0.68-0.29-1.06l-12.06-21.9c-0.13-0.26-0.19-0.61-0.19-1.06s0.25-0.87 0.77-1.26c3.54-1.92 6.11-4.4 7.72-7.42 1.67-3.03 2.51-6.53 2.51-10.52s-0.74-7.36-2.22-10.13c-1.48-2.83-3.44-5.11-5.89-6.85-2.44-1.74-5.3-2.99-8.58-3.76-3.22-0.84-6.63-1.25-10.23-1.25h-20.45zm-283.12 0.19c-0.9 0-1.86 0.19-2.89 0.58-0.97 0.32-1.87 0.83-2.7 1.54-0.77 0.71-1.45 1.58-2.03 2.61-0.51 1.02-0.77 2.21-0.77 3.56v33.38c0 4.57 0.71 8.53 2.12 11.87 1.42 3.34 3.38 6.11 5.89 8.3 2.57 2.12 5.66 3.69 9.26 4.72s7.56 1.55 11.86 1.55c4.38 0 8.33-0.52 11.87-1.55 3.6-1.09 6.66-2.7 9.17-4.82 2.5-2.19 4.43-4.92 5.78-8.2 1.42-3.34 2.13-7.3 2.13-11.87v-39.26c0-0.71-0.26-1.29-0.78-1.74-0.45-0.45-1.02-0.67-1.73-0.67h-7.24c-0.9 0-1.83 0.16-2.79 0.48-0.97 0.32-1.87 0.84-2.71 1.54-0.83 0.71-1.54 1.58-2.12 2.61-0.51 1.03-0.77 2.22-0.77 3.57v33.28c0 3.67-0.87 6.56-2.61 8.68-1.67 2.13-4.43 3.19-8.29 3.19s-6.66-1.06-8.4-3.19c-1.67-2.12-2.5-5.01-2.5-8.68v-39.07c0-0.71-0.26-1.29-0.77-1.74-0.45-0.45-1.03-0.67-1.74-0.67h-7.24zm225.65 0c-1.87 0-3.15 0.93-3.86 2.8l-22.38 61.54c-0.07 0.13-0.1 0.42-0.1 0.87s0.2 0.93 0.58 1.45c0.52 0.38 1 0.58 1.45 0.58h12.44c1.61 0 2.7-0.71 3.28-2.12l1.35-3.67c0.58-1.48 0.49-2.77-0.29-3.86-0.7-1.16-1.67-1.8-2.89-1.93 0.32 0.06 0.8 0.1 1.45 0.1h2.31c1.42 0 3.09-0.04 5.02-0.1 1.93-0.13 3.99-0.32 6.17-0.58 2.25-0.32 4.57-0.77 6.95-1.35s4.73-1.32 7.04-2.22l5.02 13.61c0.58 1.41 1.67 2.12 3.28 2.12h12.44c0.52 0 0.97-0.2 1.35-0.58 0.45-0.45 0.68-0.93 0.68-1.45 0-0.45-0.03-0.74-0.1-0.87l-22.38-61.54c-0.71-1.87-1.99-2.8-3.86-2.8h-14.95zm124.07 0c-2.19 0-4.15 0.8-5.88 2.41-1.68 1.54-2.51 3.54-2.51 5.98v56.44c0 0.7 0.22 1.28 0.67 1.73s1.03 0.68 1.74 0.68h25.76c19.29 0 29.23-8.78 29.81-26.34 0.06-0.9 0.09-1.96 0.09-3.18v-4.05-4.15c0-1.29-0.03-2.38-0.09-3.28-0.13-4.57-0.97-8.49-2.51-11.77-1.54-3.35-3.67-6.08-6.37-8.2-2.7-2.19-5.88-3.76-9.55-4.73-3.6-1.03-7.55-1.54-11.86-1.54h-19.3zm-274.13 13.5h16.3c5.6 0 8.4 2.8 8.4 8.4 0 2.63-0.74 4.66-2.22 6.08-1.48 1.41-3.54 2.12-6.18 2.12h-7.81c-0.77 0-1.48-0.26-2.12-0.78-0.58-0.57-0.87-1.31-0.87-2.21v-8.3c0-0.84-0.19-1.58-0.58-2.22-0.39-0.71-0.87-1.29-1.45-1.74-0.51-0.45-1.09-0.77-1.73-0.96-0.65-0.26-1.23-0.39-1.74-0.39zm211.29 0.1h16.59c2.57 0 4.6 0.71 6.08 2.12 1.54 1.35 2.32 3.35 2.32 5.98 0 2.64-0.78 4.6-2.32 5.89-1.48 1.28-3.51 1.93-6.08 1.93h-8.39c-0.84 0-1.54-0.29-2.12-0.87s-0.87-1.29-0.87-2.12v-7.72c0-1.22-0.48-2.38-1.45-3.47-0.96-1.16-2.22-1.74-3.76-1.74zm67.18 0.77h14.47c8.11 0 12.25 4.02 12.45 12.06 0.06 0.9 0.09 1.96 0.09 3.18 0.07 1.16 0.1 2.48 0.1 3.96s-0.03 2.83-0.1 4.05c0 1.16-0.03 2.19-0.09 3.09-0.07 4.05-1.03 7.11-2.9 9.16-1.86 2-4.88 2.99-9.06 2.99h-6.66c-0.9 0-1.64-0.28-2.22-0.86-0.52-0.58-0.77-1.29-0.77-2.13v-30.48c0-1.22-0.52-2.35-1.55-3.38-1.02-1.09-2.28-1.64-3.76-1.64zm104.09 2.48h-0.01l8.94 0.01 0.19 0.04c0.1 0.02 0.3 0.07 0.44 0.12s0.36 0.14 0.48 0.2 0.3 0.17 0.4 0.24c0.1 0.08 0.24 0.2 0.32 0.27 0.07 0.07 0.2 0.21 0.27 0.31 0.07 0.09 0.16 0.21 0.19 0.26 0.04 0.05 0.1 0.17 0.15 0.27s0.13 0.3 0.18 0.44c0.04 0.14 0.1 0.34 0.12 0.46l0.04 0.21v17.99l-0.04 0.2c-0.02 0.12-0.07 0.31-0.11 0.44-0.05 0.12-0.12 0.32-0.18 0.42-0.06 0.11-0.14 0.26-0.19 0.33-0.05 0.08-0.15 0.22-0.24 0.32-0.08 0.1-0.22 0.24-0.3 0.31s-0.21 0.17-0.29 0.23-0.25 0.16-0.38 0.22c-0.13 0.07-0.32 0.15-0.43 0.18-0.11 0.04-0.29 0.08-0.39 0.11-0.14 0.03-0.28 0.04-0.6 0.04-0.34 0-0.45-0.01-0.63-0.05-0.11-0.03-0.27-0.07-0.35-0.1-0.07-0.02-0.23-0.09-0.34-0.14-0.12-0.05-0.26-0.13-0.32-0.17s-0.19-0.13-0.29-0.2c-0.09-0.07-0.26-0.22-0.36-0.33s-0.24-0.28-0.31-0.38c-0.06-0.1-0.16-0.27-0.22-0.38-0.05-0.11-0.13-0.29-0.17-0.41-0.03-0.11-0.08-0.32-0.11-0.45l-0.04-0.25v-10.01l-7.74 7.74-7.74 7.73-0.2 0.14c-0.12 0.08-0.3 0.18-0.41 0.23s-0.29 0.13-0.41 0.16c-0.11 0.04-0.3 0.09-0.41 0.11-0.14 0.02-0.33 0.04-0.55 0.04-0.23 0-0.4-0.02-0.54-0.04-0.1-0.02-0.3-0.07-0.43-0.11-0.14-0.05-0.33-0.12-0.44-0.18-0.1-0.05-0.26-0.14-0.34-0.19-0.08-0.06-0.22-0.17-0.31-0.25-0.1-0.07-0.24-0.21-0.32-0.31-0.07-0.09-0.19-0.24-0.25-0.33s-0.15-0.25-0.19-0.34c-0.05-0.1-0.12-0.27-0.16-0.37-0.03-0.11-0.08-0.31-0.11-0.44-0.04-0.18-0.05-0.32-0.05-0.58 0-0.22 0.02-0.41 0.04-0.54 0.02-0.11 0.07-0.3 0.1-0.42 0.04-0.11 0.12-0.3 0.17-0.41s0.15-0.29 0.23-0.41l0.13-0.2 7.74-7.74 7.74-7.74-5.09-0.01-5.08-0.01-0.2-0.04c-0.11-0.03-0.26-0.07-0.34-0.1s-0.24-0.09-0.35-0.14c-0.12-0.06-0.26-0.13-0.32-0.17s-0.19-0.13-0.28-0.2c-0.1-0.08-0.26-0.23-0.37-0.33-0.1-0.11-0.24-0.28-0.3-0.39-0.07-0.1-0.17-0.27-0.23-0.38-0.05-0.1-0.12-0.29-0.16-0.4-0.04-0.12-0.09-0.33-0.12-0.47-0.04-0.22-0.04-0.32-0.03-0.61 0.01-0.2 0.03-0.43 0.05-0.52s0.07-0.27 0.11-0.39c0.04-0.13 0.12-0.33 0.18-0.44s0.17-0.28 0.24-0.38 0.22-0.28 0.34-0.4 0.31-0.28 0.42-0.35c0.11-0.08 0.29-0.18 0.4-0.24 0.1-0.05 0.29-0.13 0.42-0.17s0.32-0.09 0.44-0.11c0.11-0.02 0.24-0.04 0.28-0.04 0.04-0.01 4.1-0.01 9.02-0.01zm-225.07 0.03l7.42 21.22c-1.67 0.9-3.44 1.61-5.3 2.13-1.8 0.45-3.54 0.8-5.21 1.06-1.93 0.32-3.79 0.54-5.59 0.67l8.68-25.08zm240.62 56.88c-3.15 0-6.33 0.38-9.55 1.16-3.15 0.7-6.01 1.89-8.58 3.57-2.58 1.6-4.7 3.73-6.37 6.36-1.61 2.58-2.41 5.7-2.41 9.36 0 3.47 0.64 6.4 1.93 8.78 1.35 2.32 3.08 4.24 5.21 5.79 2.18 1.54 4.66 2.76 7.43 3.66 2.76 0.9 5.62 1.64 8.58 2.22 2 0.45 3.73 0.87 5.21 1.26 1.54 0.38 2.83 0.74 3.86 1.06 1.35 0.45 2.7 1.09 4.05 1.93 1.35 0.77 2.03 1.99 2.03 3.66 0 1.29-0.39 2.32-1.16 3.09s-1.71 1.38-2.8 1.83c-1.09 0.39-2.25 0.68-3.47 0.87-1.22 0.13-2.32 0.2-3.28 0.2-2.25 0-4.37-0.36-6.37-1.07-1.93-0.77-3.47-2.18-4.63-4.24-0.51-0.64-1.03-1.09-1.54-1.35-0.45-0.26-1.1-0.39-1.93-0.39h-12.74c-0.51 0-1.02 0.2-1.54 0.58-0.38 0.39-0.58 0.87-0.58 1.45 0.07 3.41 1.26 6.59 3.57 9.55 1.42 1.93 3.12 3.54 5.11 4.82 2.06 1.22 4.22 2.22 6.47 2.99 2.31 0.77 4.69 1.29 7.14 1.55 2.44 0.32 4.79 0.48 7.04 0.48 3.28 0 6.66-0.35 10.13-1.06 3.47-0.77 6.62-1.96 9.45-3.57 2.83-1.67 5.15-3.86 6.95-6.56 1.8-2.77 2.7-6.11 2.7-10.03 0-3.67-0.71-6.66-2.12-8.98-1.42-2.37-3.28-4.3-5.6-5.78-2.31-1.48-4.98-2.64-8-3.48-2.96-0.83-5.99-1.51-9.07-2.02-5.21-1.1-8.78-2.16-10.71-3.19-1.93-1.09-2.9-2.57-2.9-4.44 0-1.15 0.26-2.08 0.78-2.79 0.58-0.77 1.25-1.35 2.02-1.74 0.84-0.45 1.74-0.74 2.7-0.87 1.03-0.13 2.03-0.19 2.99-0.19 0.84 0 1.71 0.1 2.61 0.29 0.9 0.13 1.77 0.39 2.6 0.77 0.9 0.32 1.68 0.81 2.32 1.45 0.64 0.58 1.09 1.32 1.35 2.22 0.77 1.16 1.87 1.73 3.28 1.73h13.41c0.58 0 1.06-0.19 1.45-0.57 0.38-0.52 0.58-1.03 0.58-1.55-0.13-2.83-1.29-5.69-3.48-8.59-1.41-1.8-3.05-3.34-4.92-4.63-1.8-1.28-3.76-2.34-5.88-3.18-2.13-0.84-4.34-1.45-6.66-1.83-2.25-0.39-4.47-0.58-6.66-0.58zm-479.97 0.87c-0.58 0-1.09 0.19-1.54 0.58-0.39 0.38-0.58 0.83-0.58 1.35l0.19 0.87 19.39 61.55c0.26 0.77 0.71 1.44 1.35 2.02 0.58 0.52 1.48 0.77 2.7 0.77h15.44c1.22 0 2.12-0.25 2.7-0.77 0.64-0.64 1.06-1.32 1.26-2.02l19.48-61.55c0.07-0.13 0.1-0.42 0.1-0.87 0-0.52-0.22-0.97-0.67-1.35-0.39-0.39-0.84-0.58-1.36-0.58h-12.54c-0.83 0-1.57 0.22-2.22 0.67-0.64 0.39-1.09 1-1.35 1.84l-12.73 41.86c0 0.26-0.13 0.39-0.39 0.39-0.32 0-0.48-0.13-0.48-0.39l-12.64-41.86c-0.19-0.58-0.57-1.16-1.15-1.74-0.58-0.52-1.39-0.77-2.42-0.77h-12.54zm134.5 0c-2.38 0-4.38 0.83-5.98 2.51-1.61 1.67-2.41 3.63-2.41 5.88v56.44c0 0.64 0.22 1.22 0.67 1.73 0.51 0.45 1.09 0.68 1.74 0.68h12.15c0.77 0 1.38-0.19 1.83-0.58 0.46-0.45 0.68-1.06 0.68-1.83v-32.13c0-0.32 0.19-0.48 0.58-0.48 0.13 0 0.29 0.1 0.48 0.29 0.13 0.19 0.52 0.8 1.16 1.83 0.64 0.97 1.42 2.19 2.32 3.67 0.96 1.41 1.99 2.99 3.08 4.72 1.1 1.68 2.61 3.93 4.54 6.76 3.08 4.69 6.56 10 10.42 15.92 0.64 1.22 1.73 1.83 3.28 1.83h10.9c0.7 0 1.25-0.26 1.64-0.77 0.45-0.45 0.67-1.03 0.67-1.74v-62.22c0-0.78-0.22-1.39-0.67-1.84-0.39-0.45-0.94-0.67-1.64-0.67h-6.27c-1.03 0-2.06 0.22-3.09 0.67-1.03 0.39-1.93 0.94-2.7 1.64-0.77 0.71-1.42 1.58-1.93 2.61-0.45 1.03-0.68 2.18-0.68 3.47v27.5c0 0.32-0.16 0.48-0.48 0.48-0.19 0-0.35-0.07-0.48-0.19-0.13-0.2-0.52-0.81-1.16-1.84s-1.45-2.25-2.41-3.66c-0.9-1.48-1.9-3.06-2.99-4.73-1.03-1.74-2.48-4.05-4.34-6.95-3.03-4.76-6.43-10.1-10.23-16.01-1.03-1.42-2.02-2.25-2.99-2.51-0.96-0.32-1.83-0.48-2.6-0.48h-3.09zm64.52 0c-2.12 0-4.05 0.77-5.78 2.31-1.74 1.48-2.61 3.48-2.61 5.98v4.92c0 0.78 0.23 1.35 0.68 1.74 0.45 0.45 1.06 0.68 1.83 0.68h13.99c0.7 0 1.35 0.28 1.93 0.86 0.64 0.52 0.96 1.23 0.96 2.13v46.21c0 0.71 0.26 1.28 0.77 1.73 0.52 0.45 1.1 0.68 1.74 0.68h13.31c0.77 0 1.38-0.19 1.83-0.58 0.46-0.45 0.68-1.06 0.68-1.83v-44.19c0-1.28-0.55-2.44-1.64-3.47s-2.35-1.54-3.76-1.54h22.28c0.78 0 1.39-0.23 1.84-0.68 0.45-0.39 0.67-0.96 0.67-1.74v-10.7c0-1.68-0.83-2.51-2.51-2.51h-46.21zm-126.51 0.1c-2.25 0-4.21 0.8-5.89 2.41-1.67 1.54-2.51 3.53-2.51 5.98v56.43c0 0.71 0.23 1.29 0.68 1.74s1.03 0.68 1.74 0.68h46.11c0.64 0 1.22-0.23 1.74-0.68 0.51-0.45 0.77-1.03 0.77-1.74v-9.45c0-0.71-0.26-1.29-0.77-1.74-0.45-0.51-1.03-0.77-1.74-0.77h-28.17c-0.9 0-1.64-0.32-2.22-0.96-0.51-0.65-0.77-1.32-0.77-2.03v-4.54c0-1.28-0.51-2.44-1.54-3.47s-2.29-1.54-3.77-1.54h29.24c1.67 0 2.5-0.84 2.5-2.51v-8.68c0-1.67-0.83-2.51-2.5-2.51h-20.94c-0.96 0-1.7-0.32-2.22-0.96-0.51-0.65-0.77-1.32-0.77-2.03v-4.05c0-1.29-0.51-2.48-1.54-3.57-0.97-1.09-2.22-1.64-3.77-1.64h35.7c0.71 0 1.28-0.23 1.73-0.68 0.52-0.38 0.78-0.93 0.78-1.64v-9.55c0-0.64-0.26-1.22-0.78-1.73-0.51-0.52-1.09-0.77-1.73-0.77h-39.36zm262.47 0c-2.25 0-4.21 0.8-5.89 2.41-1.67 1.6-2.5 3.6-2.5 5.98v56.43c0 0.71 0.22 1.29 0.67 1.74s1.03 0.68 1.74 0.68h13.12c0.77 0 1.38-0.2 1.83-0.58 0.45-0.45 0.68-1.06 0.68-1.84v-15.91c0-1.1-0.49-2.22-1.45-3.38-0.9-1.16-2.19-1.74-3.86-1.74h12.73c1.16 0 2.03 0.52 2.61 1.54l9.74 19.3c0.77 1.74 2.09 2.61 3.96 2.61h13.5c0.58 0 1.07-0.2 1.45-0.58 0.39-0.52 0.58-1 0.58-1.45 0-0.32-0.1-0.68-0.29-1.06l-12.06-21.9c-0.13-0.26-0.19-0.61-0.19-1.06s0.26-0.87 0.77-1.26c3.54-1.93 6.11-4.4 7.72-7.43 1.67-3.02 2.51-6.52 2.51-10.51s-0.74-7.36-2.22-10.13c-1.48-2.83-3.44-5.11-5.89-6.85-2.44-1.74-5.3-2.99-8.58-3.76-3.22-0.84-6.63-1.25-10.23-1.25h-20.45zm66.7 0c-2.25 0-4.21 0.8-5.89 2.41-1.67 1.54-2.5 3.53-2.5 5.98v56.43c0 0.71 0.22 1.29 0.67 1.74s1.03 0.68 1.74 0.68h46.11c0.64 0 1.22-0.23 1.74-0.68 0.51-0.45 0.77-1.03 0.77-1.74v-9.45c0-0.71-0.26-1.29-0.77-1.74-0.45-0.51-1.03-0.77-1.74-0.77h-28.17c-0.9 0-1.64-0.32-2.22-0.96-0.51-0.65-0.77-1.32-0.77-2.03v-4.54c0-1.28-0.51-2.44-1.54-3.47s-2.29-1.54-3.77-1.54h29.24c1.67 0 2.51-0.84 2.51-2.51v-8.68c0-1.67-0.84-2.51-2.51-2.51h-20.94c-0.96 0-1.7-0.32-2.22-0.96-0.51-0.65-0.77-1.32-0.77-2.03v-4.05c0-1.29-0.51-2.48-1.54-3.57-0.97-1.09-2.22-1.64-3.77-1.64h35.7c0.71 0 1.29-0.23 1.74-0.68 0.51-0.38 0.77-0.93 0.77-1.64v-9.55c0-0.64-0.26-1.22-0.77-1.73-0.52-0.52-1.1-0.77-1.74-0.77h-39.36zm-137.37 0.09c-0.96 0-1.96 0.19-2.99 0.58-0.96 0.38-1.86 0.93-2.7 1.64-0.77 0.71-1.41 1.58-1.93 2.61-0.51 1.02-0.77 2.18-0.77 3.47v33.38c0 4.56 0.67 8.52 2.02 11.86 1.42 3.35 3.41 6.11 5.98 8.3 2.58 2.19 5.63 3.79 9.17 4.82 3.6 1.03 7.59 1.55 11.96 1.55 4.38 0 8.33-0.52 11.87-1.55 3.54-1.09 6.56-2.7 9.07-4.82 2.57-2.19 4.53-4.95 5.88-8.3 1.35-3.34 2.03-7.3 2.03-11.86v-39.17c0-0.71-0.26-1.29-0.77-1.74-0.45-0.51-1.03-0.77-1.74-0.77h-7.14c-0.9 0-1.86 0.19-2.89 0.58-0.97 0.32-1.87 0.84-2.7 1.54-0.78 0.71-1.45 1.58-2.03 2.61-0.51 1.03-0.77 2.22-0.77 3.57v33.18c0 3.6-0.87 6.5-2.61 8.69-1.73 2.18-4.5 3.28-8.29 3.28-3.8 0-6.6-1.07-8.4-3.19-1.73-2.18-2.6-5.11-2.6-8.78v-38.97c0-0.71-0.26-1.29-0.77-1.74-0.45-0.51-1.03-0.77-1.74-0.77h-7.14zm74.43 13.7h16.6c2.57 0 4.59 0.71 6.07 2.12 1.54 1.35 2.32 3.35 2.32 5.98 0 2.64-0.78 4.6-2.32 5.89-1.48 1.28-3.5 1.93-6.07 1.93h-8.4c-0.84 0-1.54-0.29-2.12-0.87s-0.87-1.29-0.87-2.12v-7.72c0-1.22-0.48-2.38-1.45-3.47-0.96-1.16-2.22-1.74-3.76-1.74z" />
</svg>